<svg width="16" height="16" viewBox="0 0 16 16" fill="none" xmlns="http://www.w3.org/2000/svg">
<path d="M11.5 1H4.5C2.57 1 1 2.57 1 4.5V11.5C1 13.43 2.57 15 4.5 15H11.5C13.43 15 15 13.43 15 11.5V4.5C15 2.57 13.43 1 11.5 1Z" stroke="black" stroke-width="1.5" stroke-linecap="round" stroke-linejoin="round"/>
<path d="M11.5 1H4.5C2.57 1 1 2.57 1 4.5V11.5C1 13.43 2.57 15 4.5 15H11.5C13.43 15 15 13.43 15 11.5V4.5C15 2.57 13.43 1 11.5 1Z" stroke="black" stroke-width="1.5" stroke-linecap="round" stroke-linejoin="round"/>
<path d="M8 10C9.65685 10 11 8.65685 11 7C11 5.34315 9.65685 4 8 4C6.34315 4 5 5.34315 5 7C5 8.65685 6.34315 10 8 10Z" stroke="black" stroke-width="1.5" stroke-linecap="round" stroke-linejoin="round"/>
<path d="M11.5 4.5H11.51" stroke="black" stroke-width="2" stroke-linecap="round" stroke-linejoin="round"/>
</svg>